<?xml version="1.0" encoding="UTF-8" standalone="no"?>
<!DOCTYPE svg PUBLIC "-//W3C//DTD SVG 1.1//EN" "http://www.w3.org/Graphics/SVG/1.1/DTD/svg11.dtd">
<svg width="100%" height="100%" viewBox="0 0 1609 524" version="1.1" xmlns="http://www.w3.org/2000/svg" xmlns:xlink="http://www.w3.org/1999/xlink" xml:space="preserve" xmlns:serif="http://www.serif.com/" style="fill-rule:evenodd;clip-rule:evenodd;stroke-linejoin:round;stroke-miterlimit:2;">
    <g transform="matrix(1,0,0,1,0,-1050)">
        <g id="Artboard2" transform="matrix(1.6082,0,0,0.524,0,499.8)">
            <rect x="0" y="1050" width="1000" height="1000" style="fill:none;"/>
            <clipPath id="_clip1">
                <rect x="0" y="1050" width="1000" height="1000"/>
            </clipPath>
            <g clip-path="url(#_clip1)">
                <g transform="matrix(7.989684,0,0,24.52101,-6973.602806,-35425.045708)">
                    <g transform="matrix(50,0,0,50,999.587301,1526.287369)">
                    </g>
                    <text x="905.237px" y="1526.287px" style="font-family:'Larken-Regular';font-size:50px;fill:white;">c<tspan x="929.887px 956.687px 974.137px " y="1526.287px 1526.287px 1526.287px ">ute</tspan></text>
                </g>
                <g transform="matrix(0.621813,0,0,1.908397,-179.35615,603.42665)">
                    <path d="M404.397,476.877L504.998,234.004L606.984,480.219C584.537,473.219 561.149,468.364 537.058,465.891L494.601,363.391C492.071,357.282 486.11,353.299 479.497,353.299C472.885,353.299 466.924,357.282 464.393,363.391L418.908,473.203C414.032,474.329 409.195,475.554 404.397,476.877ZM624.478,522.453L721.599,756.924L718.944,758.024L608.246,694.112C612.567,696.607 617.989,696.123 621.8,692.902C625.611,689.68 626.992,684.415 625.251,679.738L621.838,670.567L552.906,504.152C577.674,507.812 601.621,514.003 624.478,522.453ZM402.093,513.798L357.736,620.885L357.733,620.891L346.625,646.521C340.165,661.428 343.992,678.797 356.119,689.608C368.246,700.419 385.94,702.234 400.01,694.111L290.038,757.604L288.398,756.924L387.214,518.36C392.128,516.735 397.088,515.214 402.093,513.798Z" style="fill:white;"/>
                    <g transform="matrix(1,0,0,1,0,4)">
                        <path d="M301.3,532.277C358.258,494.373 426.622,472.277 500.106,472.277C573.591,472.277 641.955,494.373 698.913,532.277C641.955,503.849 573.591,487.277 500.106,487.277C426.622,487.277 358.258,503.849 301.3,532.277Z" style="fill:white;"/>
                    </g>
                </g>
            </g>
        </g>
    </g>
</svg>
